<svg xmlns="http://www.w3.org/2000/svg" id="Layer_2" viewBox="0 0 1587.41 279.12"><defs><style>.cls-1{fill:#1a2312;}.cls-2{fill:#82ba59;}</style></defs><g id="Layer_1-2"><g><path class="cls-2" d="M139.56,0h0C62.48,0,0,62.48,0,139.56H0c0,77.08,62.48,139.56,139.56,139.56h0c77.08,0,139.56-62.48,139.56-139.56h0C279.12,62.48,216.64,0,139.56,0Zm60.57,192.75c0,5.29-4.29,9.57-9.57,9.57h-37.79c-3.4,0-6.34-1.96-7.75-4.82-.94-1.9-.5-4.2,1-5.7l43.7-43.7c1.35-1.35,3.39-1.85,5.14-1.11,3.1,1.31,5.27,4.38,5.27,7.96v37.79Zm.04-93.29c0,3.01-1.19,5.89-3.32,8.02l-93.05,93.05c-.88,.88-1.97,1.44-3.11,1.67-.01,0-.02,0-.03,0-.05,.01-.1,.02-.16,.02-.32,.06-.65,.09-.99,.09h-13.88c-4.44,0-8.04-3.6-8.04-8.04v-13.88c0-.34,.04-.67,.09-.99,0-.05,.01-.11,.02-.16v-.03c.24-1.14,.79-2.23,1.68-3.11l62.14-60.84c2.31-2.26,.71-6.18-2.52-6.18h-52.87c-4.72,0-8.54-3.82-8.54-8.54v-17.45c0-4.72,3.82-8.54,8.54-8.54h108.55c3.03,0,5.49,2.46,5.49,5.49v19.41Z"></path><g><path class="cls-1" d="M337.47,187.03l78.09-91.32h-76.81v-11.09h92.17v10.66l-78.09,91.32h79.37v11.09h-94.73v-10.67Z"></path><path class="cls-1" d="M430.31,141.16c0-36.27,20.7-59.74,51.21-59.74s51.21,23.47,51.21,59.74-20.7,59.74-51.21,59.74-51.21-23.47-51.21-59.74Zm89.61,0c0-27.74-14.51-48-38.4-48s-38.4,20.27-38.4,48,14.51,48.01,38.4,48.01,38.4-20.27,38.4-48.01Z"></path><path class="cls-1" d="M589.18,189.59c17.71,0,29.66-11.31,35.2-27.31l11.52,4.06c-7.47,21.76-24.32,34.56-46.73,34.56-30.08,0-50.14-24.11-50.14-59.74s20.06-59.74,50.14-59.74,50.14,23.89,50.14,59.95v5.33h-87.69c1.71,25.82,16.43,42.89,37.55,42.89Zm-37.77-53.77h75.32c-1.71-24.96-15.79-43.1-37.55-43.1s-36.91,17.07-37.77,43.1Z"></path><path class="cls-1" d="M716.06,178.71c13.87,0,22.62-6.4,30.94-19.63l18.35,14.08c-10.03,16.85-27.1,27.74-49.29,27.74-32.43,0-52.7-23.47-52.7-59.74s20.91-59.74,52.7-59.74,53.13,23.68,53.13,59.74v9.39h-80.86c2.35,17.71,12.16,28.16,27.74,28.16Zm-27.74-48.01h55.47c-1.92-17.71-12.16-27.09-27.74-27.09s-26.67,10.45-27.74,27.09Z"></path><path class="cls-1" d="M938.33,127.93v69.77h-25.6V127.71c0-15.36-7.68-22.62-20.91-22.62s-22.4,8.53-22.4,22.83v69.77h-25.6V127.71c0-15.79-8.11-22.62-20.91-22.62s-22.4,8.11-22.4,22.83v69.77h-25.6V84.62h24.75v9.6c5.98-7.68,16-12.8,29.23-12.8s25.6,5.97,32.43,15.36c7.47-9.39,19.63-15.36,33.29-15.36,27.52,0,43.74,17.71,43.74,46.51Z"></path><path class="cls-1" d="M1050.73,141.16c0,36.06-20.05,59.74-50.35,59.74-12.37,0-23.26-4.48-29.66-11.09v55.9h-25.6V84.62h24.96v7.46c7.04-6.4,17.92-10.66,30.3-10.66,30.3,0,50.35,23.68,50.35,59.74Zm-25.6,0c0-21.98-10.88-36.06-27.52-36.06s-26.88,11.09-26.88,26.03v19.84c0,15.15,10.88,26.24,26.88,26.24s27.52-14.08,27.52-36.06Z"></path><path class="cls-1" d="M1054.28,141.16c0-36.7,21.55-59.74,54.41-59.74s54.41,23.04,54.41,59.74-21.55,59.74-54.41,59.74-54.41-23.04-54.41-59.74Zm83.21,0c0-21.55-9.6-36.06-28.8-36.06s-28.8,14.51-28.8,36.06,9.81,36.06,28.8,36.06,28.8-14.51,28.8-36.06Z"></path><path class="cls-1" d="M1315.15,84.62l-29.02,113.08h-27.52l-23.04-74.46-22.83,74.46h-27.74l-29.02-113.08h23.68l20.48,81.29,25.18-81.29h20.7l24.96,81.29,20.48-81.29h23.68Z"></path><path class="cls-1" d="M1360.74,178.71c13.87,0,22.62-6.4,30.94-19.63l18.35,14.08c-10.03,16.85-27.1,27.74-49.29,27.74-32.43,0-52.7-23.47-52.7-59.74s20.91-59.74,52.7-59.74,53.13,23.68,53.13,59.74v9.39h-80.86c2.35,17.71,12.16,28.16,27.74,28.16Zm-27.74-48.01h55.47c-1.92-17.71-12.16-27.09-27.74-27.09s-26.67,10.45-27.74,27.09Z"></path><path class="cls-1" d="M1493.74,88.24l-10.88,22.4c-6.61-3.84-11.73-5.55-17.71-5.55-11.52,0-18.56,8.11-18.56,22.4v70.2h-25.6V84.62h23.47v10.02c4.7-7.89,14.51-13.22,25.82-13.22,7.47,0,15.36,2.13,23.47,6.83Z"></path><path class="cls-1" d="M1482.01,160.57l22.83-5.12c2.99,15.15,15.15,23.89,33.71,23.89,16.22,0,24.96-4.91,24.96-13.44s-6.61-11.52-31.58-15.79c-30.72-4.91-43.1-14.3-43.1-33.5,0-20.48,18.35-35.2,43.74-35.2s45.87,14.72,50.78,34.77l-22.4,6.4c-2.99-11.73-14.51-19.84-28.38-19.84-11.09,0-19.63,5.97-19.63,13.44,0,6.83,6.19,9.82,31.15,13.87,30.08,4.91,43.31,14.94,43.31,35.21,0,21.98-18.56,35.63-48.86,35.63s-51.85-15.79-56.54-40.33Z"></path></g></g></g></svg>